<svg id="visual" viewBox="0 0 2560 1440" width="2560" height="1440" xmlns="http://www.w3.org/2000/svg" xmlns:xlink="http://www.w3.org/1999/xlink" version="1.1"><path d="M0 213L32.8 200.5C65.7 188 131.3 163 197 155.7C262.7 148.3 328.3 158.7 394 137.7C459.7 116.7 525.3 64.3 591 70.7C656.7 77 722.3 142 788 206.5C853.7 271 919.3 335 985 301C1050.7 267 1116.3 135 1181.8 119.8C1247.3 104.7 1312.7 206.3 1378.2 262.8C1443.7 319.3 1509.3 330.7 1575 355C1640.7 379.3 1706.3 416.7 1772 400C1837.7 383.3 1903.3 312.7 1969 269.3C2034.7 226 2100.3 210 2166 241.5C2231.7 273 2297.3 352 2363 338.2C2428.7 324.3 2494.3 217.7 2527.2 164.3L2560 111L2560 0L2527.2 0C2494.3 0 2428.7 0 2363 0C2297.3 0 2231.7 0 2166 0C2100.3 0 2034.7 0 1969 0C1903.3 0 1837.7 0 1772 0C1706.3 0 1640.7 0 1575 0C1509.3 0 1443.7 0 1378.2 0C1312.7 0 1247.3 0 1181.8 0C1116.3 0 1050.7 0 985 0C919.3 0 853.7 0 788 0C722.3 0 656.7 0 591 0C525.3 0 459.7 0 394 0C328.3 0 262.7 0 197 0C131.3 0 65.7 0 32.8 0L0 0Z" fill="#8b17e1" stroke-linecap="round" stroke-linejoin="miter"></path></svg>